<mxfile host="app.diagrams.net" modified="2023-11-26T08:38:17.422Z" agent="Mozilla/5.0 (Windows NT 10.0; Win64; x64) AppleWebKit/537.36 (KHTML, like Gecko) Chrome/119.0.0.0 Safari/537.36 Edg/119.0.0.0" etag="nGb0SWw2WDfX7iXvNPi7" version="22.1.4" type="device">
  <diagram name="Page-1" id="C3JZ4musSIpVNXwGIuLZ">
    <mxGraphModel dx="836" dy="423" grid="1" gridSize="10" guides="1" tooltips="1" connect="1" arrows="1" fold="1" page="1" pageScale="1" pageWidth="850" pageHeight="1100" math="0" shadow="0">
      <root>
        <mxCell id="0" />
        <mxCell id="1" parent="0" />
        <mxCell id="SMZDsfYTRyNXtcJhTuv2-1" value="" style="swimlane;startSize=0;" parent="1" vertex="1">
          <mxGeometry x="280" y="200" width="280" height="400" as="geometry">
            <mxRectangle x="320" y="220" width="50" height="40" as="alternateBounds" />
          </mxGeometry>
        </mxCell>
        <mxCell id="SMZDsfYTRyNXtcJhTuv2-4" value="Login &amp;amp; Logout" style="ellipse;whiteSpace=wrap;html=1;" parent="SMZDsfYTRyNXtcJhTuv2-1" vertex="1">
          <mxGeometry x="87.5" y="20" width="105" height="56.67" as="geometry" />
        </mxCell>
        <mxCell id="SMZDsfYTRyNXtcJhTuv2-8" value="Manage&lt;br&gt;Librarian" style="ellipse;whiteSpace=wrap;html=1;" parent="SMZDsfYTRyNXtcJhTuv2-1" vertex="1">
          <mxGeometry x="30" y="150" width="90" height="60" as="geometry" />
        </mxCell>
        <mxCell id="SMZDsfYTRyNXtcJhTuv2-9" value="Manage&lt;br&gt;Member" style="ellipse;whiteSpace=wrap;html=1;" parent="SMZDsfYTRyNXtcJhTuv2-1" vertex="1">
          <mxGeometry x="155" y="300" width="90" height="60" as="geometry" />
        </mxCell>
        <mxCell id="SMZDsfYTRyNXtcJhTuv2-10" value="Manage&lt;br&gt;Book" style="ellipse;whiteSpace=wrap;html=1;" parent="SMZDsfYTRyNXtcJhTuv2-1" vertex="1">
          <mxGeometry x="155" y="125" width="90" height="60" as="geometry" />
        </mxCell>
        <mxCell id="y0vzk2ABB9HIJrSODQGi-2" value="Manage&lt;br&gt;Book Loan" style="ellipse;whiteSpace=wrap;html=1;" vertex="1" parent="SMZDsfYTRyNXtcJhTuv2-1">
          <mxGeometry x="155" y="210" width="90" height="60" as="geometry" />
        </mxCell>
        <mxCell id="y0vzk2ABB9HIJrSODQGi-4" value="Find Book" style="ellipse;whiteSpace=wrap;html=1;" vertex="1" parent="SMZDsfYTRyNXtcJhTuv2-1">
          <mxGeometry x="30" y="270" width="90" height="60" as="geometry" />
        </mxCell>
        <mxCell id="SMZDsfYTRyNXtcJhTuv2-11" style="rounded=0;orthogonalLoop=1;jettySize=auto;html=1;exitX=1;exitY=0.3333333333333333;exitDx=0;exitDy=0;exitPerimeter=0;entryX=0;entryY=0.5;entryDx=0;entryDy=0;endArrow=none;endFill=0;strokeColor=#007FFF;" parent="1" source="SMZDsfYTRyNXtcJhTuv2-2" target="SMZDsfYTRyNXtcJhTuv2-4" edge="1">
          <mxGeometry relative="1" as="geometry" />
        </mxCell>
        <mxCell id="SMZDsfYTRyNXtcJhTuv2-12" style="rounded=0;orthogonalLoop=1;jettySize=auto;html=1;exitX=1;exitY=0.3333333333333333;exitDx=0;exitDy=0;exitPerimeter=0;entryX=0;entryY=0.5;entryDx=0;entryDy=0;endArrow=none;endFill=0;strokeColor=#007FFF;" parent="1" source="SMZDsfYTRyNXtcJhTuv2-2" target="SMZDsfYTRyNXtcJhTuv2-8" edge="1">
          <mxGeometry relative="1" as="geometry" />
        </mxCell>
        <mxCell id="SMZDsfYTRyNXtcJhTuv2-2" value="Admin" style="shape=umlActor;verticalLabelPosition=bottom;verticalAlign=top;html=1;outlineConnect=0;strokeColor=#007FFF;" parent="1" vertex="1">
          <mxGeometry x="210" y="290" width="30" height="60" as="geometry" />
        </mxCell>
        <mxCell id="SMZDsfYTRyNXtcJhTuv2-15" style="edgeStyle=none;rounded=0;orthogonalLoop=1;jettySize=auto;html=1;exitX=0;exitY=0.3333333333333333;exitDx=0;exitDy=0;exitPerimeter=0;entryX=1;entryY=0.5;entryDx=0;entryDy=0;endArrow=none;endFill=0;strokeColor=#FF8000;" parent="1" source="SMZDsfYTRyNXtcJhTuv2-3" target="SMZDsfYTRyNXtcJhTuv2-4" edge="1">
          <mxGeometry relative="1" as="geometry" />
        </mxCell>
        <mxCell id="y0vzk2ABB9HIJrSODQGi-6" style="edgeStyle=none;rounded=0;orthogonalLoop=1;jettySize=auto;html=1;exitX=0;exitY=0.3333333333333333;exitDx=0;exitDy=0;exitPerimeter=0;entryX=1;entryY=0.5;entryDx=0;entryDy=0;strokeColor=#FF8000;endArrow=none;endFill=0;" edge="1" parent="1" source="SMZDsfYTRyNXtcJhTuv2-3" target="SMZDsfYTRyNXtcJhTuv2-10">
          <mxGeometry relative="1" as="geometry" />
        </mxCell>
        <mxCell id="y0vzk2ABB9HIJrSODQGi-7" style="edgeStyle=none;rounded=0;orthogonalLoop=1;jettySize=auto;html=1;exitX=0;exitY=0.3333333333333333;exitDx=0;exitDy=0;exitPerimeter=0;entryX=1;entryY=0.5;entryDx=0;entryDy=0;strokeColor=#FF8000;endArrow=none;endFill=0;" edge="1" parent="1" source="SMZDsfYTRyNXtcJhTuv2-3" target="y0vzk2ABB9HIJrSODQGi-2">
          <mxGeometry relative="1" as="geometry" />
        </mxCell>
        <mxCell id="y0vzk2ABB9HIJrSODQGi-8" style="edgeStyle=none;rounded=0;orthogonalLoop=1;jettySize=auto;html=1;exitX=0;exitY=0.3333333333333333;exitDx=0;exitDy=0;exitPerimeter=0;entryX=1;entryY=0.5;entryDx=0;entryDy=0;strokeColor=#FF8000;endArrow=none;endFill=0;" edge="1" parent="1" source="SMZDsfYTRyNXtcJhTuv2-3" target="SMZDsfYTRyNXtcJhTuv2-9">
          <mxGeometry relative="1" as="geometry" />
        </mxCell>
        <mxCell id="SMZDsfYTRyNXtcJhTuv2-3" value="Librarian" style="shape=umlActor;verticalLabelPosition=bottom;verticalAlign=top;html=1;outlineConnect=0;strokeColor=#FF8000;" parent="1" vertex="1">
          <mxGeometry x="600" y="360" width="30" height="60" as="geometry" />
        </mxCell>
        <mxCell id="y0vzk2ABB9HIJrSODQGi-9" style="edgeStyle=none;rounded=0;orthogonalLoop=1;jettySize=auto;html=1;exitX=1;exitY=0.3333333333333333;exitDx=0;exitDy=0;exitPerimeter=0;entryX=0;entryY=0.5;entryDx=0;entryDy=0;endArrow=none;endFill=0;strokeColor=#00CC00;" edge="1" parent="1" source="y0vzk2ABB9HIJrSODQGi-3" target="y0vzk2ABB9HIJrSODQGi-4">
          <mxGeometry relative="1" as="geometry" />
        </mxCell>
        <mxCell id="y0vzk2ABB9HIJrSODQGi-10" style="edgeStyle=none;rounded=0;orthogonalLoop=1;jettySize=auto;html=1;exitX=1;exitY=0.3333333333333333;exitDx=0;exitDy=0;exitPerimeter=0;entryX=0;entryY=0.5;entryDx=0;entryDy=0;endArrow=none;endFill=0;strokeColor=#00CC00;" edge="1" parent="1" source="y0vzk2ABB9HIJrSODQGi-3" target="SMZDsfYTRyNXtcJhTuv2-4">
          <mxGeometry relative="1" as="geometry" />
        </mxCell>
        <mxCell id="y0vzk2ABB9HIJrSODQGi-3" value="Member" style="shape=umlActor;verticalLabelPosition=bottom;verticalAlign=top;html=1;outlineConnect=0;strokeColor=#00CC00;" vertex="1" parent="1">
          <mxGeometry x="210" y="430" width="30" height="60" as="geometry" />
        </mxCell>
      </root>
    </mxGraphModel>
  </diagram>
</mxfile>
